<svg width="25" height="25" viewBox="0 0 25 25" fill="none" xmlns="http://www.w3.org/2000/svg">
<path d="M19.5312 3.125H16.9004C16.2549 1.30859 14.5361 0 12.5 0C10.4639 0 8.74512 1.30859 8.10059 3.125H5.46875C4.1748 3.125 3.125 4.17383 3.125 5.46875V22.6562C3.125 23.9502 4.1748 25 5.46875 25H19.5312C20.8252 25 21.875 23.9512 21.875 22.6562V5.46875C21.875 4.17383 20.8252 3.125 19.5312 3.125ZM12.5 3.125C13.3628 3.125 14.0625 3.82471 14.0625 4.6875C14.0625 5.55029 13.3628 6.25 12.5 6.25C11.6372 6.25 10.9375 5.55176 10.9375 4.6875C10.9375 3.82324 11.6357 3.125 12.5 3.125ZM16.9385 12.832L12.6416 18.3008C12.444 18.5525 12.1523 18.7128 11.8345 18.7433C11.7969 18.7061 11.7578 18.75 11.7188 18.75C11.4403 18.75 11.1694 18.6508 10.9561 18.4677L8.22168 16.124C7.73047 15.7028 7.67383 14.9628 8.09502 14.4716C8.51538 13.9804 9.25566 13.9238 9.74736 14.345L11.553 15.8923L15.094 11.3865C15.4938 10.8767 16.2317 10.7898 16.7396 11.1881C17.251 11.5869 17.3389 12.3242 16.9385 12.832Z" fill="#030303"/>
</svg>
