<svg width="25" height="25" viewBox="0 0 25 25" fill="none" xmlns="http://www.w3.org/2000/svg">
<g clip-path="url(#clip0_63_261)">
<path d="M22.7051 27.3892H7.32422V26.2153C7.32422 25.5696 6.99463 25.0413 6.5918 25.0413H5.12695C4.72412 25.0413 4.39453 25.5696 4.39453 26.2153V27.3892H0.732422C0.32959 27.3892 0 27.9175 0 28.5632V30.911C0 31.5567 0.32959 32.085 0.732422 32.085H4.39453V33.2589C4.39453 33.9046 4.72412 34.4329 5.12695 34.4329H6.5918C6.99463 34.4329 7.32422 33.9046 7.32422 33.2589V32.085H22.7051C23.1079 32.085 23.4375 31.5567 23.4375 30.911V28.5632C23.4375 27.9175 23.1079 27.3892 22.7051 27.3892ZM22.7051 15.6498H19.043V14.4759C19.043 13.8302 18.7134 13.3019 18.3105 13.3019H16.8457C16.4429 13.3019 16.1133 13.8302 16.1133 14.4759V15.6498H0.732422C0.32959 15.6498 0 16.1781 0 16.8237V19.1716C0 19.8173 0.32959 20.3456 0.732422 20.3456H16.1133V21.5195C16.1133 22.1652 16.4429 22.6935 16.8457 22.6935H18.3105C18.7134 22.6935 19.043 22.1652 19.043 21.5195V20.3456H22.7051C23.1079 20.3456 23.4375 19.8173 23.4375 19.1716V16.8237C23.4375 16.1781 23.1079 15.6498 22.7051 15.6498ZM22.7051 3.91038H13.1836V2.73644C13.1836 2.09077 12.854 1.5625 12.4512 1.5625H10.9863C10.5835 1.5625 10.2539 2.09077 10.2539 2.73644V3.91038H0.732422C0.32959 3.91038 0 4.43866 0 5.08433V7.43221C0 8.07788 0.32959 8.60615 0.732422 8.60615H10.2539V9.78009C10.2539 10.4258 10.5835 10.954 10.9863 10.954H12.4512C12.854 10.954 13.1836 10.4258 13.1836 9.78009V8.60615H22.7051C23.1079 8.60615 23.4375 8.07788 23.4375 7.43221V5.08433C23.4375 4.43866 23.1079 3.91038 22.7051 3.91038Z" fill="#030303"/>
</g>
<defs>
<clipPath id="clip0_63_261">
<rect width="25" height="25" fill="white"/>
</clipPath>
</defs>
</svg>
