<svg width="26" height="26" viewBox="0 0 26 26" fill="none" xmlns="http://www.w3.org/2000/svg">
<g clip-path="url(#clip0_63_255)">
<path d="M14.7861 1.88647H24.1611C24.8083 1.88647 25.333 2.41113 25.333 3.05835V10.8708C25.333 11.5181 24.8083 12.0427 24.1611 12.0427H14.7861C14.1389 12.0427 13.6143 11.5181 13.6143 10.8708V3.05835C13.6143 2.41113 14.1389 1.88647 14.7861 1.88647ZM10.8799 1.88647H1.50488C0.857666 1.88647 0.333008 2.41113 0.333008 3.05835V10.8708C0.333008 11.5181 0.857666 12.0427 1.50488 12.0427H10.8799C11.5271 12.0427 12.0518 11.5181 12.0518 10.8708V3.05835C12.0518 2.41113 11.5271 1.88647 10.8799 1.88647ZM0.333008 14.7771V22.5896C0.333008 23.2368 0.857666 23.7615 1.50488 23.7615H10.8799C11.5271 23.7615 12.0518 23.2368 12.0518 22.5896V14.7771C12.0518 14.1299 11.5271 13.6052 10.8799 13.6052H1.50488C0.857666 13.6052 0.333008 14.1299 0.333008 14.7771ZM14.7861 23.7615H24.1611C24.8083 23.7615 25.333 23.2368 25.333 22.5896V14.7771C25.333 14.1299 24.8083 13.6052 24.1611 13.6052H14.7861C14.1389 13.6052 13.6143 14.1299 13.6143 14.7771V22.5896C13.6143 23.2368 14.1389 23.7615 14.7861 23.7615Z" fill="#030303"/>
</g>
<defs>
<clipPath id="clip0_63_255">
<rect width="25" height="25" fill="white" transform="translate(0.333008 0.323975)"/>
</clipPath>
</defs>
</svg>
