<svg width="25" height="25" viewBox="0 0 25 25" fill="none" xmlns="http://www.w3.org/2000/svg">
<g clip-path="url(#clip0_63_258)">
<path d="M19.7917 5.20833V19.7917H5.20833V5.20833H19.7917ZM20.9375 3.125H4.0625C3.54167 3.125 3.125 3.54167 3.125 4.0625V20.9375C3.125 21.3542 3.54167 21.875 4.0625 21.875H20.9375C21.3542 21.875 21.875 21.3542 21.875 20.9375V4.0625C21.875 3.54167 21.3542 3.125 20.9375 3.125ZM11.4583 7.29167H17.7083V9.375H11.4583V7.29167ZM11.4583 11.4583H17.7083V13.5417H11.4583V11.4583ZM11.4583 15.625H17.7083V17.7083H11.4583V15.625ZM7.29167 7.29167H9.375V9.375H7.29167V7.29167ZM7.29167 11.4583H9.375V13.5417H7.29167V11.4583ZM7.29167 15.625H9.375V17.7083H7.29167V15.625Z" fill="#030303"/>
</g>
<defs>
<clipPath id="clip0_63_258">
<rect width="25" height="25" fill="white"/>
</clipPath>
</defs>
</svg>
